Coordinates
version=1
nRows=13
nColumns=63
inDegrees=yes

Units are S.I. units (second, meters, Newtons, ...)
If the header above contains a line with 'inDegrees', this indicates whether rotational values are in degrees (yes) or radians (no).

endheader
time	pelvis_tilt	pelvis_list	pelvis_rotation	pelvis_tx	pelvis_ty	pelvis_tz	hip_flexion_r	hip_adduction_r	hip_rotation_r	knee_angle_r	knee_angle_r_beta	ankle_angle_r	subtalar_angle_r	mtp_angle_r	hip_flexion_l	hip_adduction_l	hip_rotation_l	knee_angle_l	knee_angle_l_beta	ankle_angle_l	subtalar_angle_l	mtp_angle_l	L5_S1_Flex_Ext	L5_S1_Lat_Bending	L5_S1_axial_rotation	L4_L5_Flex_Ext	L4_L5_Lat_Bending	L4_L5_axial_rotation	L3_L4_Flex_Ext	L3_L4_Lat_Bending	L3_L4_axial_rotation	L2_L3_Flex_Ext	L2_L3_Lat_Bending	L2_L3_axial_rotation	L1_L2_Flex_Ext	L1_L2_Lat_Bending	L1_L2_axial_rotation	L1_T12_Flex_Ext	L1_T12_Lat_Bending	L1_T12_axial_rotation	Abs_r3	Abs_r2	Abs_r1	Abs_t1	Abs_t2	neck_flexion	neck_bending	neck_rotation	arm_flex_r	arm_add_r	arm_rot_r	elbow_flex_r	pro_sup_r	wrist_flex_r	wrist_dev_r	arm_flex_l	arm_add_l	arm_rot_l	elbow_flex_l	pro_sup_l	wrist_flex_l	wrist_dev_l
0.000000	-0.379384	-2.594384	95.156891	0.144874	0.995759	0.430916	5.617572	-1.179903	-2.512187	12.581988	0.219597	28.007418	1.291181	0.000000	-0.360710	-0.109112	0.276011	0.704906	0.012303	22.057151	4.235400	0.000000	0.056381	-0.021969	-0.512025	0.104706	-0.029219	-0.544027	0.092629	-0.053415	-0.544027	0.064438	-0.053415	-0.448022	0.052356	-0.044799	-0.416020	0.032216	-0.034030	-0.384019	0.402727	-0.248517	-2.847730	0.000000	0.000000	20.520269	6.299386	0.244473	9.609957	-6.446185	56.622771	38.834160	77.539886	13.452124	-16.952091	11.232124	-0.992629	56.677144	29.393120	76.006574	6.833108	-18.659537
0.016949	-0.796637	-2.522484	95.622240	0.144060	0.996057	0.429920	5.111504	-1.641600	-2.231151	12.280973	0.214343	28.069396	0.771723	0.000000	-0.252415	0.326117	-0.082350	1.287689	0.022474	21.789524	4.863291	0.000000	0.062384	-0.070679	-0.553179	0.115852	-0.094003	-0.587753	0.102490	-0.171848	-0.587753	0.071298	-0.171848	-0.484032	0.057929	-0.144128	-0.449458	0.035646	-0.109481	-0.414884	0.445599	-0.799532	-3.076615	0.000000	0.000000	19.797905	5.848938	-0.076818	9.410365	-6.572099	55.895220	39.575641	79.455959	11.751058	-17.825850	11.019654	-1.237249	56.047206	29.910572	74.484830	6.966394	-18.229269
0.033898	-1.134866	-2.446327	96.036543	0.143350	0.996281	0.429085	4.671506	-2.013766	-2.130238	12.006420	0.209552	28.148174	0.438330	0.000000	-0.167919	0.672139	-0.436842	1.790351	0.031248	21.639444	5.518144	0.000000	0.065466	-0.110368	-0.600256	0.121577	-0.146789	-0.637772	0.107554	-0.268348	-0.637772	0.074821	-0.268348	-0.525224	0.060792	-0.225062	-0.487708	0.037407	-0.170959	-0.450192	0.467619	-1.248500	-3.338442	0.000000	0.000000	19.264241	5.457919	-0.320634	9.308520	-6.618913	55.251911	40.144061	80.975997	10.306393	-18.534147	10.899931	-1.435742	55.672180	30.246598	73.168845	7.030894	-17.870627
0.050847	-1.400781	-2.367520	96.400140	0.142739	0.996439	0.428403	4.294889	-2.304224	-2.187685	11.759229	0.205237	28.240245	0.271570	0.000000	-0.104853	0.937004	-0.786742	2.217676	0.038706	21.592920	6.190323	0.000000	0.065991	-0.141781	-0.651818	0.122552	-0.188569	-0.692557	0.108417	-0.344727	-0.692557	0.075421	-0.344727	-0.570341	0.061279	-0.289120	-0.529602	0.037707	-0.219619	-0.488863	0.471367	-1.603858	-3.625216	0.000000	0.000000	18.903364	5.120750	-0.494036	9.293302	-6.596936	54.690233	40.555959	82.133177	9.101786	-19.091709	10.861541	-1.592659	55.519767	30.422963	72.052367	7.034442	-17.580249
0.067797	-1.601093	-2.287667	96.713368	0.142224	0.996536	0.427863	3.978967	-2.520798	-2.381726	11.540301	0.201416	28.342099	0.252012	0.000000	-0.060848	1.128763	-1.131330	2.574448	0.044933	21.635964	6.870190	0.000000	0.064319	-0.165665	-0.706429	0.119447	-0.220335	-0.750581	0.105670	-0.402799	-0.750581	0.073511	-0.402799	-0.618125	0.059727	-0.337825	-0.573973	0.036752	-0.256616	-0.529822	0.459426	-1.874041	-3.928945	0.000000	0.000000	18.699360	4.831852	-0.604083	9.353592	-6.516478	54.207574	40.827875	82.960680	8.120892	-19.513261	10.893073	-1.712551	55.557671	30.461434	71.129143	6.984873	-17.354773
0.084746	-1.742512	-2.208375	96.976566	0.141800	0.996581	0.427457	3.721052	-2.671311	-2.690599	11.350535	0.198104	28.450228	0.360226	0.000000	-0.033535	1.255465	-1.469881	2.865452	0.050012	21.754585	7.548109	0.000000	0.060813	-0.182766	-0.762651	0.112935	-0.243079	-0.810317	0.099909	-0.444377	-0.810317	0.069503	-0.444377	-0.667320	0.056471	-0.372696	-0.619654	0.034748	-0.283104	-0.571988	0.434378	-2.067484	-4.241637	0.000000	0.000000	18.636315	4.585647	-0.657834	9.478273	-6.387847	53.801324	40.976346	83.491683	7.347368	-19.813531	10.983112	-1.799969	55.753593	30.383774	70.392920	6.890019	-17.190837
0.101695	-1.831750	-2.131250	97.190073	0.141463	0.996579	0.427177	3.518458	-2.763586	-3.092540	11.190833	0.195317	28.561124	0.576780	0.000000	-0.020545	1.325164	-1.801675	3.095470	0.054026	21.934795	8.214443	0.000000	0.055832	-0.193828	-0.819048	0.103686	-0.257791	-0.870238	0.091727	-0.471274	-0.870238	0.063811	-0.471274	-0.716667	0.051846	-0.395254	-0.665476	0.031903	-0.300240	-0.614286	0.398805	-2.192622	-4.555299	0.000000	0.000000	18.698317	4.376557	-0.662348	9.656225	-6.221352	53.468871	41.017914	83.759367	6.764870	-20.007243	11.120245	-1.859462	56.075234	30.211751	69.837444	6.757717	-17.085076
0.118644	-1.875516	-2.057897	97.354227	0.141209	0.996538	0.427013	3.368497	-2.805448	-3.565785	11.062093	0.193070	28.671279	0.882244	0.000000	-0.019509	1.345908	-2.125989	3.269286	0.057060	22.162604	8.859555	0.000000	0.049740	-0.199598	-0.874182	0.092372	-0.265465	-0.928818	0.081718	-0.485302	-0.928818	0.056848	-0.485302	-0.764909	0.046188	-0.407020	-0.710273	0.028421	-0.309177	-0.655636	0.355287	-2.257891	-4.861937	0.000000	0.000000	18.869452	4.199004	-0.624685	9.876328	-6.027302	53.207604	40.969116	83.796909	6.357055	-20.109125	11.293060	-1.895582	56.490298	29.967129	69.456463	6.595800	-17.034130
0.135593	-1.880522	-1.989922	97.469368	0.141035	0.996465	0.426956	3.268482	-2.804720	-4.088571	10.965217	0.191379	28.777184	1.257186	0.000000	-0.028058	1.325749	-2.442101	3.391685	0.059196	22.424022	9.473808	0.000000	0.042897	-0.200821	-0.926616	0.079664	-0.267092	-0.984529	0.070475	-0.488276	-0.984529	0.049027	-0.488276	-0.810789	0.039834	-0.409514	-0.752875	0.024511	-0.311072	-0.694962	0.306408	-2.271726	-5.153559	0.000000	0.000000	19.133806	4.047410	-0.551905	10.127465	-5.816007	53.014913	40.846493	83.637489	6.107578	-20.133902	11.490142	-1.912878	56.966486	29.671674	69.243723	6.412101	-17.034636
0.152542	-1.853479	-1.928932	97.535834	0.140937	0.996366	0.426998	3.215726	-2.769225	-4.639133	10.901104	0.190260	28.875330	1.682176	0.000000	-0.043823	1.272737	-2.749290	3.467450	0.060518	22.705059	10.047565	0.000000	0.035665	-0.198243	-0.974913	0.066233	-0.263663	-1.035845	0.058593	-0.482007	-1.035845	0.040761	-0.482007	-0.853049	0.033118	-0.404257	-0.792117	0.020379	-0.307078	-0.731185	0.254748	-2.242562	-5.422173	0.000000	0.000000	19.475467	3.916197	-0.451066	10.398516	-5.597774	52.888186	40.666582	83.314285	6.000097	-20.096301	11.700078	-1.915903	57.471500	29.347151	69.192972	6.214456	-17.083230
0.169492	-1.801096	-1.876533	97.553963	0.140910	0.996249	0.427129	3.207542	-2.706788	-5.195708	10.870655	0.189729	28.962210	2.137783	0.000000	-0.064434	1.194924	-3.046832	3.501366	0.061110	22.991728	10.571190	0.000000	0.028404	-0.192609	-1.017636	0.052750	-0.256170	-1.081238	0.046666	-0.468310	-1.081238	0.032463	-0.468310	-0.890431	0.026376	-0.392769	-0.826829	0.016230	-0.298352	-0.763227	0.202890	-2.178834	-5.659784	0.000000	0.000000	19.878520	3.799786	-0.329228	10.678363	-5.382913	52.824812	40.445925	82.860478	6.018267	-20.011047	11.911456	-1.909205	57.973043	29.015325	69.297957	6.010699	-17.176551
0.186441	-1.751455	-1.854255	97.523525	0.141009	0.996109	0.427342	3.259987	-2.647117	-5.709208	10.893782	0.190132	29.020734	2.552819	0.000000	-0.069471	1.122907	-3.347790	3.489304	0.060900	23.261739	11.079959	0.000000	0.023150	-0.188553	-1.053782	0.042992	-0.250776	-1.119644	0.038033	-0.458449	-1.119644	0.026458	-0.458449	-0.922059	0.021497	-0.384498	-0.856198	0.013228	-0.292069	-0.790337	0.165360	-2.132955	-5.860820	0.000000	0.000000	20.314574	3.732137	-0.211555	10.929539	-5.221544	52.834431	40.342095	82.460009	6.110070	-20.007014	12.137460	-1.918096	58.544544	28.668296	69.739542	5.809904	-17.335674
0.203390	-1.680222	-1.825175	97.419791	0.141158	0.996005	0.427624	3.330044	-2.562946	-6.117100	10.942034	0.190975	29.035820	2.910999	0.000000	-0.107187	1.036214	-3.572810	3.428191	0.059833	23.448631	11.361865	0.000000	0.016220	-0.180599	-1.075772	0.030122	-0.240196	-1.143008	0.026648	-0.439108	-1.143008	0.018538	-0.439108	-0.941301	0.015062	-0.368277	-0.874065	0.009268	-0.279747	-0.806829	0.115857	-2.042969	-5.983124	0.000000	0.000000	20.784099	3.609672	-0.093258	11.157070	-5.083173	52.887090	40.152621	82.082485	6.341451	-19.987291	12.277861	-1.918111	58.834762	28.423773	70.282348	5.668842	-17.546227
